<svg width="32" height="32" viewBox="0 0 32 32" fill="none" xmlns="http://www.w3.org/2000/svg">
<path fill-rule="evenodd" clip-rule="evenodd" d="M24.7863 16.0001C24.7863 20.8523 20.8528 24.7858 16.0006 24.7858C11.1483 24.7858 7.21484 20.8523 7.21484 16.0001C7.21484 11.1479 11.1483 7.21436 16.0006 7.21436C20.8528 7.21436 24.7863 11.1479 24.7863 16.0001ZM26.2863 16.0001C26.2863 21.6807 21.6812 26.2858 16.0006 26.2858C10.3199 26.2858 5.71484 21.6807 5.71484 16.0001C5.71484 10.3194 10.3199 5.71436 16.0006 5.71436C21.6812 5.71436 26.2863 10.3194 26.2863 16.0001ZM21.6809 13.3089C21.9698 13.0121 21.9634 12.5373 21.6665 12.2483C21.3697 11.9594 20.8949 11.9658 20.606 12.2627L14.7148 18.3149L12.038 15.5649C11.7491 15.2681 11.2742 15.2616 10.9774 15.5506C10.6806 15.8395 10.6742 16.3143 10.9631 16.6111L13.8852 19.6131C14.341 20.0814 15.0887 20.0814 15.5445 19.6131L21.6809 13.3089Z" fill="url(#paint0_linear_2108_4174)"/>
<defs>
<linearGradient id="paint0_linear_2108_4174" x1="5.71484" y1="5.71436" x2="26.6077" y2="26.6072" gradientUnits="userSpaceOnUse">
<stop stop-color="#1DBAB7"/>
<stop offset="1" stop-color="#2BA0F4"/>
</linearGradient>
</defs>
</svg>
