<svg xmlns="http://www.w3.org/2000/svg" viewBox="0 0 56 56" fill="#fff" stroke="#fff">
    <g stroke-miterlimit="10" stroke-width="2.688" clip-path="url(#a)">
        <path fill="none" stroke-linecap="round"
            d="M27.536 12.214c-5.93 0-10.75 4.82-10.75 10.75v5.178c0 1.093-.466 2.759-1.021 3.69l-2.06 3.422c-1.273 2.115-.395 4.462 1.934 5.25a37.484 37.484 0 0 0 23.776 0c2.168-.717 3.117-3.279 1.935-5.25l-2.06-3.422c-.538-.931-1.004-2.598-1.004-3.69v-5.178c0-5.913-4.838-10.75-10.75-10.75Z" />
        <path stroke-linecap="round" stroke-linejoin="round"
            d="M30.85 12.733a12.102 12.102 0 0 0-6.629 0 3.557 3.557 0 0 1 3.315-2.257c1.505 0 2.795.931 3.314 2.257Z" />
        <path
            d="M32.91 41.15c0 2.955-2.418 5.374-5.374 5.374-1.47 0-2.831-.609-3.799-1.577a5.393 5.393 0 0 1-1.576-3.798" />
    </g>
    <defs>
        <clipPath id="a">
            <path fill="none" d="M11 9h33v39H11z" />
        </clipPath>
    </defs>
</svg>